<?xml version="1.0" encoding="UTF-8" standalone="no"?>
<!-- Created with Inkscape (http://www.inkscape.org/) -->

<svg
   xmlns:dc="http://purl.org/dc/elements/1.1/"
   xmlns:cc="http://creativecommons.org/ns#"
   xmlns:rdf="http://www.w3.org/1999/02/22-rdf-syntax-ns#"
   xmlns:svg="http://www.w3.org/2000/svg"
   xmlns="http://www.w3.org/2000/svg"
   xmlns:xlink="http://www.w3.org/1999/xlink"
   xmlns:sodipodi="http://sodipodi.sourceforge.net/DTD/sodipodi-0.dtd"
   xmlns:inkscape="http://www.inkscape.org/namespaces/inkscape"
   width="48px"
   height="48px"
   id="svg4033"
   version="1.1"
   inkscape:version="0.48.3.1 r9886"
   sodipodi:docname="media-cdrw2.svg">
  <defs
     id="defs4035">
    <linearGradient
       inkscape:collect="always"
       xlink:href="#linearGradient6036"
       id="linearGradient2462"
       gradientUnits="userSpaceOnUse"
       gradientTransform="matrix(0.4293444,0,0,-0.4293442,13.546752,34.733607)"
       x1="18.775953"
       y1="4.0378027"
       x2="18.203465"
       y2="45.962208" />
    <linearGradient
       id="linearGradient6036">
      <stop
         id="stop6038"
         style="stop-color:#ffffff;stop-opacity:1"
         offset="0" />
      <stop
         id="stop6040"
         style="stop-color:#ffffff;stop-opacity:0"
         offset="1" />
    </linearGradient>
    <linearGradient
       inkscape:collect="always"
       xlink:href="#linearGradient4011"
       id="linearGradient3903"
       gradientUnits="userSpaceOnUse"
       gradientTransform="matrix(1.054054,0,0,1.054054,-51.611003,-2.7278988)"
       x1="71.204407"
       y1="6.2375584"
       x2="71.204407"
       y2="44.340794" />
    <linearGradient
       id="linearGradient4011">
      <stop
         id="stop4013"
         style="stop-color:#ffffff;stop-opacity:1;"
         offset="0" />
      <stop
         offset="0.507761"
         style="stop-color:#ffffff;stop-opacity:0.23529412;"
         id="stop4015" />
      <stop
         id="stop4017"
         style="stop-color:#ffffff;stop-opacity:0.15686275;"
         offset="0.83456558" />
      <stop
         id="stop4019"
         style="stop-color:#ffffff;stop-opacity:0.39215687;"
         offset="1" />
    </linearGradient>
    <linearGradient
       x1="20.580074"
       y1="10.774516"
       x2="24.27351"
       y2="9.8622112"
       id="linearGradient3311"
       xlink:href="#linearGradient3487"
       gradientUnits="userSpaceOnUse"
       spreadMethod="reflect" />
    <linearGradient
       id="linearGradient3487">
      <stop
         id="stop3489"
         style="stop-color:#e6cde2;stop-opacity:1"
         offset="0" />
      <stop
         id="stop3491"
         style="stop-color:#e6cde2;stop-opacity:0"
         offset="1" />
    </linearGradient>
    <linearGradient
       x1="17.494959"
       y1="11.200086"
       x2="21.047453"
       y2="9.7956104"
       id="linearGradient3313"
       xlink:href="#linearGradient3495"
       gradientUnits="userSpaceOnUse"
       spreadMethod="reflect" />
    <linearGradient
       id="linearGradient3495">
      <stop
         id="stop3497"
         style="stop-color:#c1cbe4;stop-opacity:1"
         offset="0" />
      <stop
         id="stop3499"
         style="stop-color:#c1cbe4;stop-opacity:0"
         offset="1" />
    </linearGradient>
    <linearGradient
       x1="14.084608"
       y1="13.045606"
       x2="16.994024"
       y2="10.732353"
       id="linearGradient3315"
       xlink:href="#linearGradient3503"
       gradientUnits="userSpaceOnUse"
       spreadMethod="reflect" />
    <linearGradient
       id="linearGradient3503">
      <stop
         id="stop3505"
         style="stop-color:#c4ebdd;stop-opacity:1"
         offset="0" />
      <stop
         id="stop3507"
         style="stop-color:#c4ebdd;stop-opacity:0"
         offset="1" />
    </linearGradient>
    <linearGradient
       x1="12.371647"
       y1="16.188046"
       x2="14.609327"
       y2="13.461712"
       id="linearGradient3317"
       xlink:href="#linearGradient3511"
       gradientUnits="userSpaceOnUse"
       spreadMethod="reflect" />
    <linearGradient
       id="linearGradient3511">
      <stop
         id="stop3513"
         style="stop-color:#ebeec7;stop-opacity:1"
         offset="0" />
      <stop
         id="stop3515"
         style="stop-color:#ebeec7;stop-opacity:0"
         offset="1" />
    </linearGradient>
    <linearGradient
       x1="10.609375"
       y1="17.886322"
       x2="9.7297754"
       y2="20.612656"
       id="linearGradient3319"
       xlink:href="#linearGradient3519"
       gradientUnits="userSpaceOnUse"
       spreadMethod="reflect" />
    <linearGradient
       id="linearGradient3519">
      <stop
         id="stop3521"
         style="stop-color:#fcd9cd;stop-opacity:1"
         offset="0" />
      <stop
         id="stop3523"
         style="stop-color:#fcd9cd;stop-opacity:0"
         offset="1" />
    </linearGradient>
    <linearGradient
       x1="20.580074"
       y1="10.774516"
       x2="24.27351"
       y2="9.8622112"
       id="linearGradient3346"
       xlink:href="#linearGradient3487"
       gradientUnits="userSpaceOnUse"
       spreadMethod="reflect" />
    <linearGradient
       x1="17.494959"
       y1="11.200086"
       x2="21.047453"
       y2="9.7956104"
       id="linearGradient3348"
       xlink:href="#linearGradient3495"
       gradientUnits="userSpaceOnUse"
       spreadMethod="reflect" />
    <linearGradient
       x1="14.084608"
       y1="13.045606"
       x2="16.994024"
       y2="10.732353"
       id="linearGradient3350"
       xlink:href="#linearGradient3503"
       gradientUnits="userSpaceOnUse"
       spreadMethod="reflect" />
    <linearGradient
       x1="12.371647"
       y1="16.188046"
       x2="14.609327"
       y2="13.461712"
       id="linearGradient3352"
       xlink:href="#linearGradient3511"
       gradientUnits="userSpaceOnUse"
       spreadMethod="reflect" />
    <linearGradient
       x1="10.609375"
       y1="17.886322"
       x2="9.7297754"
       y2="20.612656"
       id="linearGradient3354"
       xlink:href="#linearGradient3519"
       gradientUnits="userSpaceOnUse"
       spreadMethod="reflect" />
    <linearGradient
       inkscape:collect="always"
       xlink:href="#linearGradient3428"
       id="linearGradient2465"
       gradientUnits="userSpaceOnUse"
       gradientTransform="matrix(0.9375,0,0,0.9375,1.5,1.5)"
       x1="21.448364"
       y1="15.5"
       x2="21.448364"
       y2="32.509201" />
    <linearGradient
       id="linearGradient3428">
      <stop
         id="stop3430"
         style="stop-color:#aaaaaa;stop-opacity:1"
         offset="0" />
      <stop
         id="stop3432"
         style="stop-color:#d4d4d4;stop-opacity:1"
         offset="1" />
    </linearGradient>
    <linearGradient
       inkscape:collect="always"
       xlink:href="#linearGradient3263"
       id="linearGradient2470"
       gradientUnits="userSpaceOnUse"
       gradientTransform="matrix(0,1.1714389,-1.1714389,0,51.060244,-4.11454)"
       x1="12.2744"
       y1="32.4165"
       x2="35.391201"
       y2="14.2033" />
    <linearGradient
       x1="12.2744"
       y1="32.4165"
       x2="35.391201"
       y2="14.2033"
       id="linearGradient3263"
       gradientUnits="userSpaceOnUse">
      <stop
         id="stop3265"
         style="stop-color:#dedcde;stop-opacity:1;"
         offset="0" />
      <stop
         id="stop3267"
         style="stop-color:#f0f0f0;stop-opacity:1;"
         offset="0.5" />
      <stop
         id="stop3269"
         style="stop-color:#d2d2d2;stop-opacity:1"
         offset="1" />
    </linearGradient>
    <linearGradient
       inkscape:collect="always"
       xlink:href="#linearGradient3772"
       id="linearGradient2472"
       gradientUnits="userSpaceOnUse"
       gradientTransform="translate(50.26506,0)"
       x1="-21.915663"
       y1="3"
       x2="-21.915663"
       y2="45.032898" />
    <linearGradient
       id="linearGradient3772">
      <stop
         id="stop3774"
         style="stop-color:#b4b4b4;stop-opacity:1;"
         offset="0" />
      <stop
         id="stop3776"
         style="stop-color:#969696;stop-opacity:1;"
         offset="1" />
    </linearGradient>
    <linearGradient
       id="linearGradient23419">
      <stop
         id="stop23421"
         style="stop-color:#000000;stop-opacity:1"
         offset="0" />
      <stop
         id="stop23423"
         style="stop-color:#000000;stop-opacity:0"
         offset="1" />
    </linearGradient>
    <radialGradient
       r="22.627417"
       fy="41.63604"
       fx="23.334524"
       cy="41.63604"
       cx="23.334524"
       gradientTransform="matrix(0.9722718,0,0,0.2872354,1.3124992,27.540524)"
       gradientUnits="userSpaceOnUse"
       id="radialGradient4023"
       xlink:href="#linearGradient23419"
       inkscape:collect="always" />
    <radialGradient
       inkscape:collect="always"
       xlink:href="#linearGradient23419-8"
       id="radialGradient3610"
       gradientUnits="userSpaceOnUse"
       gradientTransform="matrix(1,0,0,0.25,0,31.22703)"
       cx="23.334524"
       cy="41.63604"
       fx="23.334524"
       fy="41.63604"
       r="22.627417" />
    <linearGradient
       inkscape:collect="always"
       id="linearGradient23419-8">
      <stop
         style="stop-color:#000000;stop-opacity:1;"
         offset="0"
         id="stop23421-5" />
      <stop
         style="stop-color:#000000;stop-opacity:0;"
         offset="1"
         id="stop23423-3" />
    </linearGradient>
    <radialGradient
       r="22.627417"
       fy="41.63604"
       fx="23.334524"
       cy="41.63604"
       cx="23.334524"
       gradientTransform="matrix(1,0,0,0.25,0,31.22703)"
       gradientUnits="userSpaceOnUse"
       id="radialGradient3114"
       xlink:href="#linearGradient23419-8"
       inkscape:collect="always" />
  </defs>
  <sodipodi:namedview
     id="base"
     pagecolor="#ffffff"
     bordercolor="#666666"
     borderopacity="1.0"
     inkscape:pageopacity="0.0"
     inkscape:pageshadow="2"
     inkscape:zoom="7"
     inkscape:cx="24"
     inkscape:cy="12.571429"
     inkscape:current-layer="layer1"
     showgrid="true"
     inkscape:grid-bbox="true"
     inkscape:document-units="px"
     inkscape:window-width="637"
     inkscape:window-height="446"
     inkscape:window-x="593"
     inkscape:window-y="235"
     inkscape:window-maximized="0" />
  <metadata
     id="metadata4038">
    <rdf:RDF>
      <cc:Work
         rdf:about="">
        <dc:format>image/svg+xml</dc:format>
        <dc:type
           rdf:resource="http://purl.org/dc/dcmitype/StillImage" />
        <dc:title />
      </cc:Work>
    </rdf:RDF>
  </metadata>
  <g
     id="layer1"
     inkscape:label="Layer 1"
     inkscape:groupmode="layer">
    <path
       inkscape:connector-curvature="0"
       style="opacity:0.3;fill:url(#radialGradient4023);fill-opacity:1;fill-rule:evenodd;stroke:none;stroke-width:2;marker:none;visibility:visible;display:inline;overflow:visible"
       id="path23417"
       d="m 46,39.499867 c 0.0011,3.589753 -9.848934,6.500001 -22,6.500001 -12.151066,0 -22.001133,-2.910248 -21.9999999,-6.500001 C 1.998867,35.910116 11.848934,32.999868 24,32.999868 c 12.151066,0 22.001133,2.910248 22,6.499999 l 0,0 z" />
    <path
       inkscape:connector-curvature="0"
       style="fill:url(#linearGradient2470);fill-rule:nonzero;stroke:url(#linearGradient2472);stroke-width:1;stroke-miterlimit:4;stroke-opacity:1"
       id="path2781"
       d="M 44.5,24 C 44.5,12.637039 35.362959,3.5 24,3.5 12.637038,3.5 3.5000001,12.63704 3.5000001,24 3.4999981,35.36296 12.637039,44.5 24,44.5 35.362958,44.499998 44.5,35.362961 44.5,24 z m -13,0 c 0,4.12813 -3.28927,7.5 -7.5,7.5 -4.29333,0 -7.5,-3.455313 -7.5,-7.5 0,-4.127303 3.041467,-7.5 7.5,-7.5 4.458533,0 7.5,3.45447 7.5,7.5 z" />
    <path
       inkscape:connector-curvature="0"
       style="opacity:0.5;fill:#ffffff;fill-opacity:1;fill-rule:nonzero;stroke:none;stroke-width:1;marker:none;visibility:visible;display:inline;overflow:visible;enable-background:accumulate"
       id="path2474"
       d="m 24,16 c -4.416,0 -8,3.584 -8,8 0,4.416 3.584,8 8,8 4.416,0 8,-3.584 8,-8 0,-4.416 -3.584,-8 -8,-8 z m 0,4 c 2.208,0 4,1.792 4,4 0,2.208 -1.792,4 -4,4 -2.208,0 -4,-1.792 -4,-4 0,-2.208 1.792,-4 4,-4 z" />
    <path
       inkscape:connector-curvature="0"
       style="fill:none;stroke:url(#linearGradient2465);stroke-width:1;stroke-linecap:butt;stroke-linejoin:round;stroke-miterlimit:4;stroke-opacity:1;stroke-dasharray:none;stroke-dashoffset:0;marker:none;visibility:visible;display:inline;overflow:visible;enable-background:accumulate"
       id="path3418"
       d="m 24,16.5 c -4.14,0 -7.5,3.36 -7.5,7.5 0,4.14 3.36,7.5 7.5,7.5 4.14,0 7.5,-3.36 7.5,-7.5 0,-4.14 -3.36,-7.5 -7.5,-7.5 z m 0,3.75 c 2.07,0 3.75,1.68 3.75,3.75 0,2.07 -1.68,3.75 -3.75,3.75 -2.07,0 -3.75,-1.68 -3.75,-3.75 0,-2.07 1.68,-3.75 3.75,-3.75 z" />
    <g
       id="g3527">
      <path
         inkscape:connector-curvature="0"
         style="opacity:0.8;fill:url(#linearGradient3346);fill-opacity:1;fill-rule:nonzero;stroke:none"
         id="path3296"
         transform="matrix(0.9996011,0.02824295,-0.02824295,0.9996011,0.6924114,-0.6708346)"
         d="M 15.856928,5.7307748 20.625,16.34375 C 21.660403,15.885186 22.795334,15.625 24,15.625 c 0.03206,0 0.06178,-3.6e-4 0.09375,0 L 24.10801,4.0047512 c -2.94215,-0.070687 -5.543041,0.6572865 -8.251083,1.7260236 l 10e-7,0 z" />
      <path
         inkscape:connector-curvature="0"
         style="opacity:0.8;fill:url(#linearGradient3348);fill-opacity:1;fill-rule:nonzero;stroke:none"
         id="path3308"
         d="m 12.121471,7.9060109 6.931026,9.3601041 c 0.913109,-0.669755 1.965938,-1.167064 3.142629,-1.425169 0.03132,-0.0069 0.06026,-0.01359 0.09157,-0.02009 L 19.857174,4.426276 c -2.888973,0.5613244 -5.31953,1.8556038 -7.735703,3.4797349 l 0,0 z" />
      <path
         inkscape:connector-curvature="0"
         style="opacity:0.8;fill:url(#linearGradient3350);fill-opacity:1;fill-rule:nonzero;stroke:none"
         id="path3310"
         d="m 8.2523933,11.646535 9.2137237,7.155818 c 0.70865,-0.883264 1.596891,-1.636119 2.666685,-2.18998 0.02847,-0.01474 0.05469,-0.02872 0.08325,-0.0431 L 14.86585,6.2506132 C 12.220599,7.5405321 10.165881,9.452393 8.2523933,11.646535 z" />
      <path
         inkscape:connector-curvature="0"
         style="opacity:0.8;fill:url(#linearGradient3352);fill-opacity:1;fill-rule:nonzero;stroke:none"
         id="path3312"
         d="m 5.6328855,16.073974 c 7.1748065,2.242248 7.8502625,7.031463 12.7767855,1.754127 L 10.499985,9.1321388 C 8.2787249,11.062747 6.9132871,13.459349 5.6328855,16.073974 z" />
      <path
         inkscape:connector-curvature="0"
         style="opacity:0.8;fill:url(#linearGradient3354);fill-opacity:1;fill-rule:nonzero;stroke:none"
         id="path3314"
         d="M 7.155289,13.193173 C 5.9722117,14.945185 5.2475768,16.829547 4.6301929,18.837116 L 15.96875,21.8125 C 16.184264,21.049497 16.486796,20.297733 16.9375,19.59375 16.95479,19.56675 16.98246,19.52673 17,19.5 L 7.155289,13.193173 z" />
    </g>
    <g
       id="g3297"
       transform="matrix(-1,0,0,-1,47.999999,47.990833)">
      <path
         inkscape:connector-curvature="0"
         style="opacity:0.8;fill:url(#linearGradient3311);fill-opacity:1;fill-rule:nonzero;stroke:none"
         id="path3299"
         transform="matrix(0.9996011,0.02824295,-0.02824295,0.9996011,0.6924114,-0.6708346)"
         d="M 15.856928,5.7307748 20.625,16.34375 C 21.660403,15.885186 22.795334,15.625 24,15.625 c 0.03206,0 0.06178,-3.6e-4 0.09375,0 L 24.10801,4.0047512 c -2.94215,-0.070687 -5.543041,0.6572865 -8.251083,1.7260236 l 10e-7,0 z" />
      <path
         inkscape:connector-curvature="0"
         style="opacity:0.8;fill:url(#linearGradient3313);fill-opacity:1;fill-rule:nonzero;stroke:none"
         id="path3301"
         d="m 12.121471,7.9060109 6.931026,9.3601041 c 0.913109,-0.669755 1.965938,-1.167064 3.142629,-1.425169 0.03132,-0.0069 0.06026,-0.01359 0.09157,-0.02009 L 19.857174,4.426276 c -2.888973,0.5613244 -5.31953,1.8556038 -7.735703,3.4797349 l 0,0 z" />
      <path
         inkscape:connector-curvature="0"
         style="opacity:0.8;fill:url(#linearGradient3315);fill-opacity:1;fill-rule:nonzero;stroke:none"
         id="path3303"
         d="m 8.2523933,11.646535 9.2137237,7.155818 c 0.70865,-0.883264 1.596891,-1.636119 2.666685,-2.18998 0.02847,-0.01474 0.05469,-0.02872 0.08325,-0.0431 L 14.86585,6.2506132 C 12.220599,7.5405321 10.165881,9.452393 8.2523933,11.646535 z" />
      <path
         inkscape:connector-curvature="0"
         style="opacity:0.8;fill:url(#linearGradient3317);fill-opacity:1;fill-rule:nonzero;stroke:none"
         id="path3305"
         d="m 5.6328855,16.073974 c 7.1748065,2.242248 7.8502625,7.031463 12.7767855,1.754127 L 10.499985,9.1321388 C 8.2787249,11.062747 6.9132871,13.459349 5.6328855,16.073974 z" />
      <path
         inkscape:connector-curvature="0"
         style="opacity:0.8;fill:url(#linearGradient3319);fill-opacity:1;fill-rule:nonzero;stroke:none"
         id="path3307"
         d="M 7.155289,13.193173 C 5.9722117,14.945185 5.2475768,16.829547 4.6301929,18.837116 L 15.96875,21.8125 C 16.184264,21.049497 16.486796,20.297733 16.9375,19.59375 16.95479,19.56675 16.98246,19.52673 17,19.5 L 7.155289,13.193173 z" />
    </g>
    <path
       inkscape:connector-curvature="0"
       style="opacity:0.55;color:#000000;fill:none;stroke:url(#linearGradient3903);stroke-width:1;stroke-linecap:round;stroke-linejoin:round;stroke-miterlimit:4;stroke-opacity:1;stroke-dasharray:none;stroke-dashoffset:0;marker:none;visibility:visible;display:inline;overflow:visible;enable-background:accumulate"
       id="path8655"
       d="M 43.5,23.99931 C 43.5,34.76921 34.76891,43.5 24.000247,43.5 13.230598,43.5 4.5,34.769111 4.5,23.99931 4.5,13.229908 13.230598,4.5000024 24.000247,4.5000024 34.76891,4.5000024 43.5,13.229908 43.5,23.99931 l 0,0 z" />
    <path
       style="opacity:0.4;fill:none;stroke:url(#linearGradient2462);stroke-width:0.99999982;stroke-miterlimit:4;stroke-opacity:1"
       id="path3281"
       d="m 24,32.5 c -4.711429,0 -8.5,-3.788571 -8.5,-8.5 0,-4.711429 3.788571,-8.500001 8.5,-8.500001 4.711431,0 8.5,3.788572 8.5,8.500001 0,4.711429 -3.788569,8.5 -8.5,8.5 l 0,0 0,0 0,0 z"
       inkscape:connector-curvature="0" />
    <path
       sodipodi:type="arc"
       style="opacity:0.55;fill:url(#radialGradient3114);fill-opacity:1;fill-rule:evenodd;stroke:none;stroke-width:2;marker:none;visibility:visible;display:inline;overflow:visible"
       id="path23417-8"
       sodipodi:cx="23.334524"
       sodipodi:cy="41.63604"
       sodipodi:rx="22.627417"
       sodipodi:ry="5.6568542"
       d="m 45.961941,41.63604 a 22.627417,5.6568542 0 1 1 -45.25483346,0 22.627417,5.6568542 0 1 1 45.25483346,0 z"
       inkscape:r_cx="true"
       inkscape:r_cy="true"
       transform="matrix(0.8695652,0,0,0.940845,3.926504,-1.075082)" />
    <path
       inkscape:connector-curvature="0"
       style="font-size:13.42952347px;font-style:italic;font-variant:normal;font-weight:bold;font-stretch:normal;opacity:0.3;fill:#000000;fill-opacity:1;stroke:#000000;stroke-width:1.99999988;stroke-linecap:butt;stroke-linejoin:miter;stroke-miterlimit:4;stroke-opacity:1;stroke-dasharray:none;font-family:Arial;-inkscape-font-specification:Sans Italic"
       d="m 7.1352673,38.337583 c 0.6583444,0.101485 1.3166888,0.202968 1.9750333,0.304452 C 8.4412594,41.045214 5.8212853,42.55399 3.4626336,41.853464 1.2188895,41.310981 0.66780352,38.62676 1.0425702,36.620393 1.3220078,33.843901 3.9411163,31.492572 6.7214969,32.016907 8.089946,31.856816 10.436782,34.508991 9.1225025,35.155919 8.2441791,35.280354 7.4200343,35.520102 7.3346341,34.286643 6.0257021,32.892075 3.7374218,34.111852 3.3021444,35.762981 c -0.5496257,1.397881 -0.8197888,3.581524 0.7422582,4.407932 1.3351351,0.59623 2.7665829,-0.509007 3.0908648,-1.833329 l -1e-7,-10e-7 z m 2.7481546,3.494577 c 0.6648411,-3.234247 1.3296821,-6.468495 1.9945231,-9.702742 1.737399,0.09735 3.561902,-0.274703 5.217753,0.380155 2.302839,1.279138 2.227415,4.645049 1.108623,6.725337 -0.892768,1.944063 -3.060507,2.778956 -5.060112,2.59725 -1.086929,0 -2.173858,0 -3.2607871,0 z m 2.2803831,-1.56197 c 1.410953,0.0011 3.162644,0.195963 3.976048,-1.267443 0.870025,-1.334505 1.241132,-3.300769 0.334588,-4.697076 -0.752819,-0.85457 -1.973227,-0.498534 -2.972291,-0.574573 -0.446116,2.179698 -0.89223,4.359395 -1.338345,6.539092 z m 7.646756,-2.85258 c 1.206243,0 2.412486,0 3.618729,0 -0.125605,0.611109 -0.251211,1.222219 -0.376816,1.833328 -1.206243,0 -2.412486,0 -3.618729,0 0.125605,-0.611109 0.251211,-1.222219 0.376816,-1.833328 z m 6.100512,4.41455 c -0.654014,0 -1.308027,0 -1.962039,0 0.664841,-3.234247 1.329682,-6.468495 1.994523,-9.702742 1.863291,0.05086 3.743005,-0.121444 5.592538,0.130306 2.341437,0.53929 2.159698,4.345295 0.04832,5.104942 -0.701224,0.318558 -1.740657,0.176495 -0.74835,0.983262 0.360712,0.936179 1.993109,3.047623 1.238029,3.484232 -0.556723,-0.126447 -1.482043,0.266079 -1.783659,-0.219549 -0.694254,-1.31409 -0.841386,-3.840638 -2.755155,-3.79789 -0.784765,-0.240132 -0.959858,0.284225 -0.999943,0.977873 -0.208087,1.013188 -0.416175,2.026377 -0.624262,3.039566 z m 1.12395,-5.473514 c 1.329553,-0.08481 2.959517,0.336221 3.943568,-0.79422 1.021295,-1.383327 -0.701188,-2.093848 -1.842291,-1.813473 -0.506991,0.142699 -1.494935,-0.317035 -1.628485,0.293427 -0.157597,0.771422 -0.315195,1.542844 -0.472792,2.314266 z m 15.313001,5.473514 c -0.660511,0 -1.321021,0 -1.981532,0 -0.07146,-2.365016 -0.142928,-4.730031 -0.214393,-7.095047 -1.156434,2.365016 -2.312868,4.730031 -3.469302,7.095047 -0.673503,0 -1.347006,0 -2.020509,0 -0.119108,-3.234247 -0.238217,-6.468495 -0.357326,-9.702742 0.638855,0 1.277709,0 1.916562,0 0.02815,2.263531 0.0563,4.527063 0.08446,6.790594 1.0893,-2.263531 2.178601,-4.527063 3.267901,-6.790594 0.708154,0 1.416307,0 2.124459,0 0.07363,2.239263 0.147261,4.478526 0.220891,6.717789 1.045989,-2.239263 2.091977,-4.478526 3.137965,-6.717789 0.632356,0 1.264713,0 1.89707,0 -1.535414,3.234247 -3.070828,6.468495 -4.606243,9.702742 z"
       id="text2922" />
    <path
       inkscape:connector-curvature="0"
       style="font-size:13.42952347px;font-style:italic;font-variant:normal;font-weight:bold;font-stretch:normal;fill:#666666;fill-opacity:1;stroke:#666666;stroke-width:1.99999988;stroke-linecap:butt;stroke-linejoin:miter;stroke-miterlimit:4;stroke-opacity:1;stroke-dasharray:none;font-family:Arial;-inkscape-font-specification:Sans Italic"
       d="m 7.1352673,37.369386 c 0.6583444,0.101483 1.3166888,0.202967 1.9750333,0.304452 -0.6690412,2.403178 -3.2890153,3.911955 -5.647667,3.211428 -2.2437441,-0.542482 -2.79483008,-3.226703 -2.4200634,-5.233071 0.2794376,-2.776492 2.8985461,-5.127821 5.6789267,-4.603486 1.368449,-0.160091 3.7152841,2.492085 2.4010056,3.139013 -0.8783234,0.124434 -1.7024682,0.364183 -1.7878684,-0.869277 -1.308932,-1.394568 -3.5972123,-0.174791 -4.0324897,1.476339 -0.5496257,1.39788 -0.8197888,3.581524 0.7422582,4.407932 1.3351351,0.596229 2.7665829,-0.509007 3.0908648,-1.83333 l -1e-7,0 z m 2.7481546,3.494576 c 0.6648411,-3.234248 1.3296821,-6.468495 1.9945231,-9.702743 1.737399,0.09736 3.561902,-0.274702 5.217753,0.380155 2.302839,1.279139 2.227415,4.645051 1.108623,6.725339 -0.892768,1.944063 -3.060507,2.778955 -5.060112,2.597249 -1.086929,0 -2.173858,0 -3.2607871,0 z m 2.2803831,-1.561969 c 1.410953,0.0011 3.162644,0.195963 3.976048,-1.267445 0.870025,-1.334504 1.241132,-3.300769 0.334588,-4.697074 -0.752819,-0.85457 -1.973227,-0.498536 -2.972291,-0.574573 -0.446116,2.179697 -0.89223,4.359394 -1.338345,6.539092 z m 7.646756,-2.85258 c 1.206243,0 2.412486,0 3.618729,0 -0.125605,0.611109 -0.251211,1.222218 -0.376816,1.833328 -1.206243,0 -2.412486,0 -3.618729,0 0.125605,-0.61111 0.251211,-1.222219 0.376816,-1.833328 z m 6.100512,4.414549 c -0.654014,0 -1.308027,0 -1.962039,0 0.664841,-3.234248 1.329682,-6.468495 1.994523,-9.702743 1.863291,0.05086 3.743005,-0.121442 5.592538,0.130308 2.341437,0.53929 2.159698,4.345294 0.04832,5.104941 -0.701224,0.318559 -1.740657,0.176496 -0.74835,0.983261 0.360712,0.93618 1.993109,3.047623 1.238029,3.484233 -0.556723,-0.126446 -1.482043,0.266079 -1.783659,-0.219548 -0.694254,-1.314091 -0.841386,-3.840638 -2.755155,-3.797891 -0.784765,-0.240132 -0.959858,0.284226 -0.999943,0.977872 -0.208087,1.013189 -0.416175,2.026379 -0.624262,3.039567 z m 1.12395,-5.473513 c 1.329553,-0.08482 2.959517,0.336219 3.943568,-0.794221 1.021295,-1.383327 -0.701188,-2.093847 -1.842291,-1.813473 -0.506991,0.142698 -1.494935,-0.317035 -1.628485,0.293427 -0.157597,0.771422 -0.315195,1.542845 -0.472792,2.314267 z m 15.313001,5.473513 c -0.660511,0 -1.321021,0 -1.981532,0 -0.07146,-2.365015 -0.142928,-4.730031 -0.214393,-7.095046 -1.156434,2.365015 -2.312868,4.730031 -3.469302,7.095046 -0.673503,0 -1.347006,0 -2.020509,0 -0.119108,-3.234248 -0.238217,-6.468495 -0.357326,-9.702743 0.638855,0 1.277709,0 1.916562,0 0.02815,2.263532 0.0563,4.527064 0.08446,6.790595 1.0893,-2.263531 2.178601,-4.527063 3.267901,-6.790595 0.708154,0 1.416307,0 2.124459,0 0.07363,2.239264 0.147261,4.478527 0.220891,6.717791 1.045989,-2.239264 2.091977,-4.478527 3.137965,-6.717791 0.632356,0 1.264713,0 1.89707,0 -1.535414,3.234248 -3.070828,6.468495 -4.606243,9.702743 z"
       id="text3698" />
    <path
       inkscape:connector-curvature="0"
       style="font-size:13.42952347px;font-style:italic;font-variant:normal;font-weight:bold;font-stretch:normal;fill:#ffffff;fill-opacity:1;stroke:none;font-family:Arial;-inkscape-font-specification:Sans Italic"
       d="m 7.1352673,37.369386 c 0.6583444,0.101483 1.3166888,0.202967 1.9750333,0.304452 -0.6503644,2.247893 -2.9923985,3.775701 -5.2701404,3.295193 -2.0404972,-0.227382 -3.06353694,-2.429736 -2.88730121,-4.321606 -0.035626,-2.700145 1.87389031,-5.53839 4.69138681,-5.64029 1.8580944,-0.3337 4.0630293,1.285845 3.8734403,3.141582 -0.5949038,0.05872 -1.1898076,0.117435 -1.7847113,0.176153 -0.1307891,-1.888891 -2.6181177,-2.025401 -3.6402511,-0.818211 -1.1143772,1.327725 -1.6560289,3.45771 -0.795047,5.052406 1.1150637,1.64548 3.5007651,0.517461 3.8375907,-1.189679 l -1e-7,0 z m 2.7481546,3.494576 c 0.6648411,-3.234248 1.3296821,-6.468495 1.9945231,-9.702743 1.662011,0.07588 3.375895,-0.208487 4.989556,0.277978 2.315962,0.989181 2.455051,4.152166 1.626334,6.222542 -0.698575,1.94852 -2.61412,3.299735 -4.659132,3.193123 -1.316901,0.01871 -2.634231,0.0048 -3.9512811,0.0091 z m 2.2803831,-1.561969 c 1.411345,0.0018 3.162345,0.195654 3.976048,-1.267445 0.870025,-1.334504 1.241132,-3.300769 0.334588,-4.697074 -0.753243,-0.854039 -1.972718,-0.499079 -2.972291,-0.574573 -0.446116,2.179697 -0.89223,4.359394 -1.338345,6.539092 z m 7.646756,-2.85258 c 1.206243,0 2.412486,0 3.618729,0 -0.125605,0.611109 -0.251211,1.222218 -0.376816,1.833328 -1.206243,0 -2.412486,0 -3.618729,0 0.125605,-0.61111 0.251211,-1.222219 0.376816,-1.833328 z m 6.100512,4.414549 c -0.654014,0 -1.308027,0 -1.962039,0 0.664841,-3.234248 1.329682,-6.468495 1.994523,-9.702743 1.863363,0.04997 3.742895,-0.120025 5.592538,0.130308 2.343296,0.54372 2.15927,4.343994 0.04832,5.104941 -0.701224,0.318559 -1.740657,0.176496 -0.74835,0.983261 0.370688,0.939818 1.959476,3.015639 1.257084,3.484233 -0.577251,0 -1.154503,0 -1.731754,0 -0.640825,-1.327096 -0.795335,-3.292149 -2.234908,-3.969451 -0.678782,-0.05006 -1.659502,-0.327253 -1.543178,0.69631 -0.224078,1.091047 -0.448156,2.182094 -0.672234,3.273141 z m 1.12395,-5.473513 c 1.33019,-0.08511 2.958969,0.335969 3.943568,-0.794221 1.01379,-1.363545 -0.675196,-2.09672 -1.813709,-1.813473 -0.50861,0.06872 -1.233453,-0.133402 -1.616133,0.09306 -0.171242,0.838212 -0.342484,1.676423 -0.513726,2.514635 z m 15.313001,5.473513 c -0.660511,0 -1.321021,0 -1.981532,0 -0.07146,-2.365015 -0.142928,-4.730031 -0.214393,-7.095046 -1.156434,2.365015 -2.312868,4.730031 -3.469302,7.095046 -0.673503,0 -1.347006,0 -2.020509,0 -0.119108,-3.234248 -0.238217,-6.468495 -0.357326,-9.702743 0.638855,0 1.277709,0 1.916562,0 0.02815,2.263532 0.0563,4.527064 0.08446,6.790595 1.0893,-2.263531 2.178601,-4.527063 3.267901,-6.790595 0.708154,0 1.416307,0 2.124459,0 0.07363,2.239264 0.147261,4.478527 0.220891,6.717791 1.045989,-2.239264 2.091977,-4.478527 3.137965,-6.717791 0.632356,0 1.264713,0 1.89707,0 -1.535414,3.234248 -3.070828,6.468495 -4.606243,9.702743 z"
       id="text3702" />
  </g>
</svg>
