<?xml version="1.0" encoding="UTF-8" standalone="no"?>
<!-- Created with Inkscape (http://www.inkscape.org/) -->

<svg
   xmlns:dc="http://purl.org/dc/elements/1.1/"
   xmlns:cc="http://creativecommons.org/ns#"
   xmlns:rdf="http://www.w3.org/1999/02/22-rdf-syntax-ns#"
   xmlns:svg="http://www.w3.org/2000/svg"
   xmlns="http://www.w3.org/2000/svg"
   xmlns:xlink="http://www.w3.org/1999/xlink"
   xmlns:sodipodi="http://sodipodi.sourceforge.net/DTD/sodipodi-0.dtd"
   xmlns:inkscape="http://www.inkscape.org/namespaces/inkscape"
   width="48px"
   height="48px"
   id="svg4033"
   version="1.1"
   inkscape:version="0.48.3.1 r9886"
   sodipodi:docname="gnome-dev-disc-dvdr.svg">
  <defs
     id="defs4035">
    <linearGradient
       inkscape:collect="always"
       xlink:href="#linearGradient6036"
       id="linearGradient2462"
       gradientUnits="userSpaceOnUse"
       gradientTransform="matrix(0.4293444,0,0,-0.4293442,13.546752,34.733607)"
       x1="18.775953"
       y1="4.0378027"
       x2="18.203465"
       y2="45.962208" />
    <linearGradient
       id="linearGradient6036">
      <stop
         id="stop6038"
         style="stop-color:#ffffff;stop-opacity:1"
         offset="0" />
      <stop
         id="stop6040"
         style="stop-color:#ffffff;stop-opacity:0"
         offset="1" />
    </linearGradient>
    <linearGradient
       inkscape:collect="always"
       xlink:href="#linearGradient4011"
       id="linearGradient3903"
       gradientUnits="userSpaceOnUse"
       gradientTransform="matrix(1.054054,0,0,1.054054,-51.611003,-2.7278988)"
       x1="71.204407"
       y1="6.2375584"
       x2="71.204407"
       y2="44.340794" />
    <linearGradient
       id="linearGradient4011">
      <stop
         id="stop4013"
         style="stop-color:#ffffff;stop-opacity:1;"
         offset="0" />
      <stop
         offset="0.507761"
         style="stop-color:#ffffff;stop-opacity:0.23529412;"
         id="stop4015" />
      <stop
         id="stop4017"
         style="stop-color:#ffffff;stop-opacity:0.15686275;"
         offset="0.83456558" />
      <stop
         id="stop4019"
         style="stop-color:#ffffff;stop-opacity:0.39215687;"
         offset="1" />
    </linearGradient>
    <linearGradient
       x1="20.580074"
       y1="10.774516"
       x2="24.27351"
       y2="9.8622112"
       id="linearGradient3311"
       xlink:href="#linearGradient3487"
       gradientUnits="userSpaceOnUse"
       spreadMethod="reflect" />
    <linearGradient
       id="linearGradient3487">
      <stop
         id="stop3489"
         style="stop-color:#e6cde2;stop-opacity:1"
         offset="0" />
      <stop
         id="stop3491"
         style="stop-color:#e6cde2;stop-opacity:0"
         offset="1" />
    </linearGradient>
    <linearGradient
       x1="17.494959"
       y1="11.200086"
       x2="21.047453"
       y2="9.7956104"
       id="linearGradient3313"
       xlink:href="#linearGradient3495"
       gradientUnits="userSpaceOnUse"
       spreadMethod="reflect" />
    <linearGradient
       id="linearGradient3495">
      <stop
         id="stop3497"
         style="stop-color:#c1cbe4;stop-opacity:1"
         offset="0" />
      <stop
         id="stop3499"
         style="stop-color:#c1cbe4;stop-opacity:0"
         offset="1" />
    </linearGradient>
    <linearGradient
       x1="14.084608"
       y1="13.045606"
       x2="16.994024"
       y2="10.732353"
       id="linearGradient3315"
       xlink:href="#linearGradient3503"
       gradientUnits="userSpaceOnUse"
       spreadMethod="reflect" />
    <linearGradient
       id="linearGradient3503">
      <stop
         id="stop3505"
         style="stop-color:#c4ebdd;stop-opacity:1"
         offset="0" />
      <stop
         id="stop3507"
         style="stop-color:#c4ebdd;stop-opacity:0"
         offset="1" />
    </linearGradient>
    <linearGradient
       x1="12.371647"
       y1="16.188046"
       x2="14.609327"
       y2="13.461712"
       id="linearGradient3317"
       xlink:href="#linearGradient3511"
       gradientUnits="userSpaceOnUse"
       spreadMethod="reflect" />
    <linearGradient
       id="linearGradient3511">
      <stop
         id="stop3513"
         style="stop-color:#ebeec7;stop-opacity:1"
         offset="0" />
      <stop
         id="stop3515"
         style="stop-color:#ebeec7;stop-opacity:0"
         offset="1" />
    </linearGradient>
    <linearGradient
       x1="10.609375"
       y1="17.886322"
       x2="9.7297754"
       y2="20.612656"
       id="linearGradient3319"
       xlink:href="#linearGradient3519"
       gradientUnits="userSpaceOnUse"
       spreadMethod="reflect" />
    <linearGradient
       id="linearGradient3519">
      <stop
         id="stop3521"
         style="stop-color:#fcd9cd;stop-opacity:1"
         offset="0" />
      <stop
         id="stop3523"
         style="stop-color:#fcd9cd;stop-opacity:0"
         offset="1" />
    </linearGradient>
    <linearGradient
       x1="20.580074"
       y1="10.774516"
       x2="24.27351"
       y2="9.8622112"
       id="linearGradient3346"
       xlink:href="#linearGradient3487"
       gradientUnits="userSpaceOnUse"
       spreadMethod="reflect" />
    <linearGradient
       x1="17.494959"
       y1="11.200086"
       x2="21.047453"
       y2="9.7956104"
       id="linearGradient3348"
       xlink:href="#linearGradient3495"
       gradientUnits="userSpaceOnUse"
       spreadMethod="reflect" />
    <linearGradient
       x1="14.084608"
       y1="13.045606"
       x2="16.994024"
       y2="10.732353"
       id="linearGradient3350"
       xlink:href="#linearGradient3503"
       gradientUnits="userSpaceOnUse"
       spreadMethod="reflect" />
    <linearGradient
       x1="12.371647"
       y1="16.188046"
       x2="14.609327"
       y2="13.461712"
       id="linearGradient3352"
       xlink:href="#linearGradient3511"
       gradientUnits="userSpaceOnUse"
       spreadMethod="reflect" />
    <linearGradient
       x1="10.609375"
       y1="17.886322"
       x2="9.7297754"
       y2="20.612656"
       id="linearGradient3354"
       xlink:href="#linearGradient3519"
       gradientUnits="userSpaceOnUse"
       spreadMethod="reflect" />
    <linearGradient
       inkscape:collect="always"
       xlink:href="#linearGradient3428"
       id="linearGradient2465"
       gradientUnits="userSpaceOnUse"
       gradientTransform="matrix(0.9375,0,0,0.9375,1.5,1.5)"
       x1="21.448364"
       y1="15.5"
       x2="21.448364"
       y2="32.509201" />
    <linearGradient
       id="linearGradient3428">
      <stop
         id="stop3430"
         style="stop-color:#aaaaaa;stop-opacity:1"
         offset="0" />
      <stop
         id="stop3432"
         style="stop-color:#d4d4d4;stop-opacity:1"
         offset="1" />
    </linearGradient>
    <linearGradient
       inkscape:collect="always"
       xlink:href="#linearGradient3263"
       id="linearGradient2470"
       gradientUnits="userSpaceOnUse"
       gradientTransform="matrix(0,1.1714389,-1.1714389,0,51.060244,-4.11454)"
       x1="12.2744"
       y1="32.4165"
       x2="35.391201"
       y2="14.2033" />
    <linearGradient
       x1="12.2744"
       y1="32.4165"
       x2="35.391201"
       y2="14.2033"
       id="linearGradient3263"
       gradientUnits="userSpaceOnUse">
      <stop
         id="stop3265"
         style="stop-color:#dedcde;stop-opacity:1;"
         offset="0" />
      <stop
         id="stop3267"
         style="stop-color:#f0f0f0;stop-opacity:1;"
         offset="0.5" />
      <stop
         id="stop3269"
         style="stop-color:#d2d2d2;stop-opacity:1"
         offset="1" />
    </linearGradient>
    <linearGradient
       inkscape:collect="always"
       xlink:href="#linearGradient3772"
       id="linearGradient2472"
       gradientUnits="userSpaceOnUse"
       gradientTransform="translate(50.26506,0)"
       x1="-21.915663"
       y1="3"
       x2="-21.915663"
       y2="45.032898" />
    <linearGradient
       id="linearGradient3772">
      <stop
         id="stop3774"
         style="stop-color:#b4b4b4;stop-opacity:1;"
         offset="0" />
      <stop
         id="stop3776"
         style="stop-color:#969696;stop-opacity:1;"
         offset="1" />
    </linearGradient>
    <linearGradient
       id="linearGradient23419">
      <stop
         id="stop23421"
         style="stop-color:#000000;stop-opacity:1"
         offset="0" />
      <stop
         id="stop23423"
         style="stop-color:#000000;stop-opacity:0"
         offset="1" />
    </linearGradient>
    <radialGradient
       r="22.627417"
       fy="41.63604"
       fx="23.334524"
       cy="41.63604"
       cx="23.334524"
       gradientTransform="matrix(0.9722718,0,0,0.2872354,1.3124992,27.540524)"
       gradientUnits="userSpaceOnUse"
       id="radialGradient4023"
       xlink:href="#linearGradient23419"
       inkscape:collect="always" />
    <linearGradient
       inkscape:collect="always"
       xlink:href="#linearGradient7495"
       id="linearGradient3895"
       gradientUnits="userSpaceOnUse"
       gradientTransform="matrix(1.3972896,0,0,1.385338,0.9976285,-34.440132)"
       x1="29.501898"
       y1="50.906841"
       x2="29.501898"
       y2="58.065693" />
    <linearGradient
       id="linearGradient7495">
      <stop
         style="stop-color:#ffb8b8;stop-opacity:1;"
         offset="0"
         id="stop7497" />
      <stop
         style="stop-color:#f03e3e;stop-opacity:1;"
         offset="1"
         id="stop7499" />
    </linearGradient>
    <linearGradient
       inkscape:collect="always"
       xlink:href="#linearGradient7495"
       id="linearGradient3892"
       gradientUnits="userSpaceOnUse"
       gradientTransform="matrix(1.3972896,0,0,1.385338,0.9976285,-34.440132)"
       x1="29.501898"
       y1="51.644352"
       x2="29.436247"
       y2="58.065353" />
    <linearGradient
       id="linearGradient3088">
      <stop
         style="stop-color:#ffb8b8;stop-opacity:1;"
         offset="0"
         id="stop3090" />
      <stop
         style="stop-color:#f03e3e;stop-opacity:1;"
         offset="1"
         id="stop3092" />
    </linearGradient>
    <linearGradient
       inkscape:collect="always"
       xlink:href="#linearGradient7495"
       id="linearGradient7559"
       gradientUnits="userSpaceOnUse"
       gradientTransform="matrix(0.4876897,0,0,0.4842373,18.767797,29.897267)"
       x1="23.457289"
       y1="18.862062"
       x2="22.045448"
       y2="26.926096" />
    <linearGradient
       id="linearGradient3095">
      <stop
         style="stop-color:#ffb8b8;stop-opacity:1;"
         offset="0"
         id="stop3097" />
      <stop
         style="stop-color:#f03e3e;stop-opacity:1;"
         offset="1"
         id="stop3099" />
    </linearGradient>
    <radialGradient
       inkscape:collect="always"
       xlink:href="#linearGradient23419-9"
       id="radialGradient3610"
       gradientUnits="userSpaceOnUse"
       gradientTransform="matrix(1,0,0,0.25,0,31.22703)"
       cx="23.334524"
       cy="41.63604"
       fx="23.334524"
       fy="41.63604"
       r="22.627417" />
    <linearGradient
       inkscape:collect="always"
       id="linearGradient23419-9">
      <stop
         style="stop-color:#000000;stop-opacity:1;"
         offset="0"
         id="stop23421-3" />
      <stop
         style="stop-color:#000000;stop-opacity:0;"
         offset="1"
         id="stop23423-6" />
    </linearGradient>
  </defs>
  <sodipodi:namedview
     id="base"
     pagecolor="#ffffff"
     bordercolor="#666666"
     borderopacity="1.0"
     inkscape:pageopacity="0.0"
     inkscape:pageshadow="2"
     inkscape:zoom="7"
     inkscape:cx="24"
     inkscape:cy="12.571429"
     inkscape:current-layer="layer1"
     showgrid="true"
     inkscape:grid-bbox="true"
     inkscape:document-units="px"
     inkscape:window-width="637"
     inkscape:window-height="446"
     inkscape:window-x="593"
     inkscape:window-y="235"
     inkscape:window-maximized="0" />
  <metadata
     id="metadata4038">
    <rdf:RDF>
      <cc:Work
         rdf:about="">
        <dc:format>image/svg+xml</dc:format>
        <dc:type
           rdf:resource="http://purl.org/dc/dcmitype/StillImage" />
        <dc:title></dc:title>
      </cc:Work>
    </rdf:RDF>
  </metadata>
  <g
     id="layer1"
     inkscape:label="Layer 1"
     inkscape:groupmode="layer">
    <path
       inkscape:connector-curvature="0"
       style="opacity:0.3;fill:url(#radialGradient4023);fill-opacity:1;fill-rule:evenodd;stroke:none;stroke-width:2;marker:none;visibility:visible;display:inline;overflow:visible"
       id="path23417"
       d="m 46,39.499867 c 0.0011,3.589753 -9.848934,6.500001 -22,6.500001 -12.151066,0 -22.001133,-2.910248 -21.9999999,-6.500001 C 1.998867,35.910116 11.848934,32.999868 24,32.999868 c 12.151066,0 22.001133,2.910248 22,6.499999 l 0,0 z" />
    <path
       inkscape:connector-curvature="0"
       style="fill:url(#linearGradient2470);fill-rule:nonzero;stroke:url(#linearGradient2472);stroke-width:1;stroke-miterlimit:4;stroke-opacity:1"
       id="path2781"
       d="M 44.5,24 C 44.5,12.637039 35.362959,3.5 24,3.5 12.637038,3.5 3.5000001,12.63704 3.5000001,24 3.4999981,35.36296 12.637039,44.5 24,44.5 35.362958,44.499998 44.5,35.362961 44.5,24 z m -13,0 c 0,4.12813 -3.28927,7.5 -7.5,7.5 -4.29333,0 -7.5,-3.455313 -7.5,-7.5 0,-4.127303 3.041467,-7.5 7.5,-7.5 4.458533,0 7.5,3.45447 7.5,7.5 z" />
    <path
       inkscape:connector-curvature="0"
       style="opacity:0.5;fill:#ffffff;fill-opacity:1;fill-rule:nonzero;stroke:none;stroke-width:1;marker:none;visibility:visible;display:inline;overflow:visible;enable-background:accumulate"
       id="path2474"
       d="m 24,16 c -4.416,0 -8,3.584 -8,8 0,4.416 3.584,8 8,8 4.416,0 8,-3.584 8,-8 0,-4.416 -3.584,-8 -8,-8 z m 0,4 c 2.208,0 4,1.792 4,4 0,2.208 -1.792,4 -4,4 -2.208,0 -4,-1.792 -4,-4 0,-2.208 1.792,-4 4,-4 z" />
    <path
       inkscape:connector-curvature="0"
       style="fill:none;stroke:url(#linearGradient2465);stroke-width:1;stroke-linecap:butt;stroke-linejoin:round;stroke-miterlimit:4;stroke-opacity:1;stroke-dasharray:none;stroke-dashoffset:0;marker:none;visibility:visible;display:inline;overflow:visible;enable-background:accumulate"
       id="path3418"
       d="m 24,16.5 c -4.14,0 -7.5,3.36 -7.5,7.5 0,4.14 3.36,7.5 7.5,7.5 4.14,0 7.5,-3.36 7.5,-7.5 0,-4.14 -3.36,-7.5 -7.5,-7.5 z m 0,3.75 c 2.07,0 3.75,1.68 3.75,3.75 0,2.07 -1.68,3.75 -3.75,3.75 -2.07,0 -3.75,-1.68 -3.75,-3.75 0,-2.07 1.68,-3.75 3.75,-3.75 z" />
    <g
       id="g3527">
      <path
         inkscape:connector-curvature="0"
         style="opacity:0.8;fill:url(#linearGradient3346);fill-opacity:1;fill-rule:nonzero;stroke:none"
         id="path3296"
         transform="matrix(0.9996011,0.02824295,-0.02824295,0.9996011,0.6924114,-0.6708346)"
         d="M 15.856928,5.7307748 20.625,16.34375 C 21.660403,15.885186 22.795334,15.625 24,15.625 c 0.03206,0 0.06178,-3.6e-4 0.09375,0 L 24.10801,4.0047512 c -2.94215,-0.070687 -5.543041,0.6572865 -8.251083,1.7260236 l 10e-7,0 z" />
      <path
         inkscape:connector-curvature="0"
         style="opacity:0.8;fill:url(#linearGradient3348);fill-opacity:1;fill-rule:nonzero;stroke:none"
         id="path3308"
         d="m 12.121471,7.9060109 6.931026,9.3601041 c 0.913109,-0.669755 1.965938,-1.167064 3.142629,-1.425169 0.03132,-0.0069 0.06026,-0.01359 0.09157,-0.02009 L 19.857174,4.426276 c -2.888973,0.5613244 -5.31953,1.8556038 -7.735703,3.4797349 l 0,0 z" />
      <path
         inkscape:connector-curvature="0"
         style="opacity:0.8;fill:url(#linearGradient3350);fill-opacity:1;fill-rule:nonzero;stroke:none"
         id="path3310"
         d="m 8.2523933,11.646535 9.2137237,7.155818 c 0.70865,-0.883264 1.596891,-1.636119 2.666685,-2.18998 0.02847,-0.01474 0.05469,-0.02872 0.08325,-0.0431 L 14.86585,6.2506132 C 12.220599,7.5405321 10.165881,9.452393 8.2523933,11.646535 z" />
      <path
         inkscape:connector-curvature="0"
         style="opacity:0.8;fill:url(#linearGradient3352);fill-opacity:1;fill-rule:nonzero;stroke:none"
         id="path3312"
         d="m 5.6328855,16.073974 c 7.1748065,2.242248 7.8502625,7.031463 12.7767855,1.754127 L 10.499985,9.1321388 C 8.2787249,11.062747 6.9132871,13.459349 5.6328855,16.073974 z" />
      <path
         inkscape:connector-curvature="0"
         style="opacity:0.8;fill:url(#linearGradient3354);fill-opacity:1;fill-rule:nonzero;stroke:none"
         id="path3314"
         d="M 7.155289,13.193173 C 5.9722117,14.945185 5.2475768,16.829547 4.6301929,18.837116 L 15.96875,21.8125 C 16.184264,21.049497 16.486796,20.297733 16.9375,19.59375 16.95479,19.56675 16.98246,19.52673 17,19.5 L 7.155289,13.193173 z" />
    </g>
    <g
       id="g3297"
       transform="matrix(-1,0,0,-1,47.999999,47.990833)">
      <path
         inkscape:connector-curvature="0"
         style="opacity:0.8;fill:url(#linearGradient3311);fill-opacity:1;fill-rule:nonzero;stroke:none"
         id="path3299"
         transform="matrix(0.9996011,0.02824295,-0.02824295,0.9996011,0.6924114,-0.6708346)"
         d="M 15.856928,5.7307748 20.625,16.34375 C 21.660403,15.885186 22.795334,15.625 24,15.625 c 0.03206,0 0.06178,-3.6e-4 0.09375,0 L 24.10801,4.0047512 c -2.94215,-0.070687 -5.543041,0.6572865 -8.251083,1.7260236 l 10e-7,0 z" />
      <path
         inkscape:connector-curvature="0"
         style="opacity:0.8;fill:url(#linearGradient3313);fill-opacity:1;fill-rule:nonzero;stroke:none"
         id="path3301"
         d="m 12.121471,7.9060109 6.931026,9.3601041 c 0.913109,-0.669755 1.965938,-1.167064 3.142629,-1.425169 0.03132,-0.0069 0.06026,-0.01359 0.09157,-0.02009 L 19.857174,4.426276 c -2.888973,0.5613244 -5.31953,1.8556038 -7.735703,3.4797349 l 0,0 z" />
      <path
         inkscape:connector-curvature="0"
         style="opacity:0.8;fill:url(#linearGradient3315);fill-opacity:1;fill-rule:nonzero;stroke:none"
         id="path3303"
         d="m 8.2523933,11.646535 9.2137237,7.155818 c 0.70865,-0.883264 1.596891,-1.636119 2.666685,-2.18998 0.02847,-0.01474 0.05469,-0.02872 0.08325,-0.0431 L 14.86585,6.2506132 C 12.220599,7.5405321 10.165881,9.452393 8.2523933,11.646535 z" />
      <path
         inkscape:connector-curvature="0"
         style="opacity:0.8;fill:url(#linearGradient3317);fill-opacity:1;fill-rule:nonzero;stroke:none"
         id="path3305"
         d="m 5.6328855,16.073974 c 7.1748065,2.242248 7.8502625,7.031463 12.7767855,1.754127 L 10.499985,9.1321388 C 8.2787249,11.062747 6.9132871,13.459349 5.6328855,16.073974 z" />
      <path
         inkscape:connector-curvature="0"
         style="opacity:0.8;fill:url(#linearGradient3319);fill-opacity:1;fill-rule:nonzero;stroke:none"
         id="path3307"
         d="M 7.155289,13.193173 C 5.9722117,14.945185 5.2475768,16.829547 4.6301929,18.837116 L 15.96875,21.8125 C 16.184264,21.049497 16.486796,20.297733 16.9375,19.59375 16.95479,19.56675 16.98246,19.52673 17,19.5 L 7.155289,13.193173 z" />
    </g>
    <path
       inkscape:connector-curvature="0"
       style="opacity:0.55;color:#000000;fill:none;stroke:url(#linearGradient3903);stroke-width:1;stroke-linecap:round;stroke-linejoin:round;stroke-miterlimit:4;stroke-opacity:1;stroke-dasharray:none;stroke-dashoffset:0;marker:none;visibility:visible;display:inline;overflow:visible;enable-background:accumulate"
       id="path8655"
       d="M 43.5,23.99931 C 43.5,34.76921 34.76891,43.5 24.000247,43.5 13.230598,43.5 4.5,34.769111 4.5,23.99931 4.5,13.229908 13.230598,4.5000024 24.000247,4.5000024 34.76891,4.5000024 43.5,13.229908 43.5,23.99931 l 0,0 z" />
    <path
       style="opacity:0.4;fill:none;stroke:url(#linearGradient2462);stroke-width:0.99999982;stroke-miterlimit:4;stroke-opacity:1"
       id="path3281"
       d="m 24,32.5 c -4.711429,0 -8.5,-3.788571 -8.5,-8.5 0,-4.711429 3.788571,-8.500001 8.5,-8.500001 4.711431,0 8.5,3.788572 8.5,8.500001 0,4.711429 -3.788569,8.5 -8.5,8.5 l 0,0 0,0 0,0 z"
       inkscape:connector-curvature="0" />
    <g
       id="g2532"
       transform="matrix(0.8695652,0,0,0.8823529,-0.8695653,2.6470691)">
      <path
         transform="matrix(1,0,0,1.066291,0.91548,-4.218429)"
         inkscape:r_cy="true"
         inkscape:r_cx="true"
         d="m 45.961941,41.63604 c 0,3.124194 -10.13064,5.656854 -22.627417,5.656854 -12.496777,0 -22.62741646,-2.53266 -22.62741646,-5.656854 0,-3.124195 10.13063946,-5.656854 22.62741646,-5.656854 12.496777,0 22.627417,2.532659 22.627417,5.656854 z"
         sodipodi:ry="5.6568542"
         sodipodi:rx="22.627417"
         sodipodi:cy="41.63604"
         sodipodi:cx="23.334524"
         id="path23417-3"
         style="opacity:0.55;fill:url(#radialGradient3610);fill-opacity:1;fill-rule:evenodd;stroke:none;stroke-width:2;marker:none;visibility:visible;display:inline;overflow:visible"
         sodipodi:type="arc" />
      <g
         transform="matrix(1.4803396,0,0,1.4519805,-21.079265,22.452403)"
         id="g576"
         style="opacity:0.2">
        <path
           inkscape:connector-curvature="0"
           id="path577"
           d="M 45.882,9.821 C 45.725,9.243 45.384,8.687 44.897,8.213 44.131,7.47 43.066,6.975 41.725,6.742 41.448,6.695 41.152,6.657 40.846,6.633 40.584,6.612 40.336,6.613 40.096,6.613 l -0.193,0 -1.777,-0.002 -1.776,0 -0.519,0.003 C 35.447,6.618 35.084,6.622 34.725,6.607 L 34.64,6.603 C 34.431,6.59 34.144,6.573 33.836,6.669 L 33.834,6.67 c -0.368,0.115 -0.563,0.376 -0.657,0.501 0,0 -0.014,0.018 -0.014,0.019 L 33.02,7.362 32.946,7.45 31.8,8.813 31.485,9.185 c -0.269,0.316 -0.546,0.643 -0.813,0.979 0,0 -0.061,0.079 -0.112,0.147 C 30.487,10.081 30.413,9.85 30.331,9.62 L 30.148,9.113 C 30.017,8.754 29.893,8.415 29.789,8.073 L 29.748,7.931 C 29.694,7.748 29.634,7.54 29.542,7.328 l 0.004,0.008 -0.004,-0.01 C 29.324,6.764 28.908,6.64 28.679,6.616 l -0.267,-0.005 -0.03,0.002 c -0.002,0 -10.791,0 -10.791,0 0,0 0,0.392 0,0.811 -0.06,0 -0.121,0 -0.181,0 l 0,-0.002 C 17.407,7.437 17.403,7.452 17.399,7.467 17.035,7.377 16.716,7.299 16.716,7.299 L 16.395,8.602 16.38,8.653 c -0.035,0.115 -0.087,0.288 -0.087,0.497 0,0 0.032,0.073 0.043,0.097 -0.095,0.126 -0.161,0.277 -0.186,0.448 l 0.011,-0.056 -0.092,0.381 -0.624,2.607 -0.208,0.879 -0.063,0.269 -0.134,0.554 -0.022,0.071 c -0.041,0.132 -0.103,0.332 -0.103,0.565 l 0,0.9 3.114,0 1.515,0.004 0.235,10e-4 c 0.657,0.002 1.238,-0.039 1.776,-0.125 1.179,-0.188 2.247,-0.564 3.177,-1.116 0.899,-0.535 1.581,-1.144 2.038,-1.816 0.013,0.033 0.68,1.921 0.68,1.921 l 0.172,0.489 c 0.134,0.388 0.273,0.789 0.427,1.185 l 0.009,0.021 0.111,0.309 0.028,0.111 c 0.1,0.461 0.482,0.76 0.944,0.743 l 0.796,-0.478 c 0.241,-0.294 0.499,-0.576 0.772,-0.874 0,0 0.342,-0.376 0.343,-0.376 l 1.231,-1.39 0.65,-0.736 0.741,-0.837 c 0,0 0.122,-0.139 0.298,-0.336 -0.064,0.274 -0.126,0.535 -0.126,0.535 l -0.205,0.863 -0.054,0.206 c -0.057,0.21 -0.12,0.448 -0.145,0.716 l -0.087,0.98 3.647,0 0.448,0.002 c 1.021,0.005 2.078,0.011 3.144,-0.22 0.591,-0.127 1.168,-0.311 1.714,-0.546 0.606,-0.261 1.134,-0.595 1.569,-0.89 0.956,-0.642 1.673,-1.586 1.967,-2.59 0.18,-0.607 0.192,-1.231 0.038,-1.8 m -24.068,2.178 c -0.131,0.074 -0.287,0.133 -0.48,0.198 -0.268,0.091 -0.483,0.148 -0.679,0.181 -0.13,0.021 -0.266,0.033 -0.405,0.042 0.073,-0.307 0.156,-0.657 0.156,-0.657 0,0 0.361,-1.527 0.399,-1.687 0.205,0.004 0.407,0.012 0.603,0.033 0.192,0.021 1.156,0.15 1.21,0.655 0.003,0.03 0.004,0.059 0.004,0.088 0.001,0.477 -0.407,0.922 -0.808,1.147 m 17.325,0.383 c -0.122,0.018 -0.249,0.026 -0.375,0.033 0.023,-0.099 0.046,-0.198 0.07,-0.295 l 0.095,-0.399 0.071,-0.304 0.139,-0.585 0.048,-0.189 c 0.046,-0.176 0.092,-0.376 0.128,-0.584 0.394,0.015 0.771,0.056 1.123,0.156 0.301,0.085 0.503,0.191 0.601,0.314 0.064,0.083 0.099,0.197 0.099,0.325 0,0.01 0,0.02 0,0.03 -0.017,0.418 -0.313,0.829 -0.791,1.1 -0.157,0.089 -0.338,0.167 -0.536,0.231 -0.262,0.085 -0.488,0.141 -0.672,0.167 m -9.957,5.211 c -0.015,0.001 -0.027,-0.001 -0.041,0 l -0.009,0.002 0.05,-0.002 z" />
      </g>
      <path
         inkscape:connector-curvature="0"
         id="path584"
         style="fill:#666666;fill-opacity:1"
         d="m 29.006544,31.113467 c -0.544765,0.166978 -0.833431,0.545945 -0.972583,0.727442 0,0 -0.02073,0.02614 -0.02073,0.02759 l -0.211688,0.249741 -0.109545,0.127774 -1.696469,1.979049 -0.466307,0.540137 c -0.398212,0.458826 -0.808266,0.933623 -1.203517,1.421489 0,0 -0.0903,0.114706 -0.165798,0.213441 -0.108064,-0.333955 -0.21761,-0.669363 -0.338997,-1.00477 l -0.270902,-0.736155 c -0.193925,-0.521261 -0.377487,-1.01203 -0.531442,-1.510059 l -0.06069,-0.206182 c -0.07994,-0.265712 -0.168759,-0.567724 -0.30495,-0.875544 l 0.0059,0.01162 -0.0059,-0.01597 C 22.330212,31.248509 21.71439,31.068464 21.375393,31.032164 l -0.395251,-0.0058 -0.04441,0.0029 c -0.003,0 -15.9743449,0 -15.9743449,0 0,0 0,0.653391 0,1.306783 C 4.3129994,32.180673 3.666091,32.023859 3.666091,32.023859 l -0.475189,1.89193 -0.022205,0.0755 c -0.051812,0.166978 -0.1287896,0.419623 -0.1287896,0.721635 0,0 0.047371,0.105994 0.063655,0.140842 -0.1406322,0.182949 -0.2383346,0.402198 -0.2753431,0.650487 l 0.016284,-0.08131 -0.1361912,0.553205 -0.9237316,3.785313 -0.3079107,1.276291 -0.093261,0.390583 -0.1983655,0.805849 -0.031087,0.104542 C 1.0932611,42.53039 1.00148,42.819334 1.00148,43.159097 l 0,1.306783 4.6097772,0 2.2427145,0.0058 0.3478798,0 c 0.9725831,0.0044 1.8326605,-0.05663 2.6290835,-0.181498 1.74532,-0.272972 3.326323,-0.820369 4.703039,-1.621862 1.330825,-0.775358 2.340416,-1.659614 3.016932,-2.636797 0.01924,0.04646 1.006631,2.789255 1.006631,2.789255 l 0.254618,0.710018 c 0.198366,0.564821 0.404133,1.147065 0.632105,1.722049 l 0.01332,0.03049 0.164318,0.44721 0.04145,0.16117 c 0.150995,0.68969 0.749052,1.133996 1.458135,1.080273 l -0.07402,0.0015 c 0,0 1.000709,-0.413814 1.104333,-0.599668 l 0.08734,-0.09583 c 0.356762,-0.426882 0.73869,-0.83634 1.142822,-1.269031 0,0 0.506277,-0.547396 0.507757,-0.547396 l 1.822298,-2.018253 0.962221,-1.068658 1.096931,-1.215307 c 0,0 0.180602,-0.200374 0.441141,-0.487866 -0.09474,0.397843 -0.186522,0.775358 -0.186522,0.775358 l -0.30347,1.254511 -0.07994,0.297656 c -0.08438,0.304916 -0.177641,0.651939 -0.21465,1.039618 l -0.128789,1.424393 5.398798,0 0.663193,0.0029 c 1.511426,0.0073 3.076145,0.01452 4.654187,-0.319436 0.874881,-0.184402 1.729037,-0.453018 2.537302,-0.792781 0.897086,-0.377515 1.678705,-0.863929 2.322653,-1.290811 1.415205,-0.933623 2.476608,-2.302841 2.911828,-3.76063 0.264981,-0.881352 0.281265,-1.785936 0.05329,-2.612112 -0.232413,-0.839245 -0.737209,-1.646546 -1.458134,-2.334785 -1.13394,-1.078822 -2.710502,-1.7961 -4.695637,-2.134411 -0.410054,-0.06824 -0.848235,-0.123419 -1.301219,-0.159718 -0.387849,-0.03049 -0.754973,-0.02904 -1.110254,-0.02759 l -0.285706,0 -2.630564,-0.0029 -2.627602,0 -0.768297,0.0029 c -0.56845,0.0058 -1.105813,0.01016 -1.637255,-0.01162 l -0.125829,-0.0073 c -0.309391,-0.01887 -0.734248,-0.04356 -1.190193,0.09583 l 0,0 -0.003,0.0029 M 5.9650584,36.935909 c 0,0 0.4515036,0 0.8023441,0 -0.1095452,0.45447 -0.8556363,3.547188 -0.8556363,3.547188 0,0 -0.2442561,1.029454 -0.3227141,1.367766 -0.023685,0 -0.8141867,0 -1.5676796,0 0.025166,-0.101639 0.050332,-0.206181 0.050332,-0.206181 l 0.309391,-1.274839 c 0,0 0.6084196,-2.498859 0.8363919,-3.433934 0.3612029,0 0.7475715,0 0.7475715,0 l 0,0 m 3.1634857,1.572495 c 0,0 0.5344026,-2.217175 0.5906555,-2.449491 0.3034699,0.0058 0.6024989,0.01742 0.8926449,0.04792 0.284226,0.03049 1.711273,0.217797 1.791211,0.951047 0.0044,0.04211 0.0059,0.08567 0.0059,0.127774 0,0.692595 -0.602499,1.338727 -1.196115,1.66397 -0.193924,0.108899 -0.424857,0.193114 -0.710563,0.288944 -0.396731,0.13213 -0.7150043,0.214893 -1.0051508,0.262809 -0.1924442,0.03049 -0.3937704,0.04791 -0.5995376,0.06098 0.1095452,-0.445758 0.230933,-0.953951 0.230933,-0.953951 l 0,0 m 6.4986914,-4.862683 c 0,0 0.663192,0 0.934094,0 0,0.345571 0,1.032358 0,1.032358 0,0.426882 0.105104,0.765194 0.195405,1.046878 0.05921,0.185854 0.0977,0.389131 0.119908,0.63742 0.0148,0.136486 0.02072,0.272972 0.02072,0.40365 0,0.453018 -0.07698,0.861025 -0.230933,1.219664 -0.367124,0.855216 -1.230162,1.697365 -2.497333,2.434971 -0.598057,0.349927 -1.258288,0.633064 -1.96145,0.856669 0.103624,-0.04792 0.205768,-0.08857 0.309391,-0.145199 1.589885,-0.874092 2.559508,-2.389959 2.559508,-3.949386 0,-0.133583 -0.0074,-0.268617 -0.0222,-0.403651 -0.17172,-1.571043 -1.382638,-2.703588 -3.295236,-3.134826 1.78973,0.0015 3.868127,0.0015 3.868127,0.0015 m 9.46085,5.866001 0.368604,-0.470441 0.247217,-0.30782 0.309391,-0.402199 0.399692,-0.515453 c 0.370084,-0.45447 0.768297,-0.913296 1.150224,-1.357602 l 0.473709,-0.5503 1.696469,-1.976146 0.09474,-0.108898 c 0,0 0.08142,-0.09873 0.162837,-0.196018 0.01628,0 0.21613,0.01307 0.21613,0.01307 0.338997,0.01452 0.677995,0.01888 1.014032,0.01888 -0.327155,0.181497 -0.532922,0.434142 -0.640987,0.566272 0,0 -0.03109,0.0363 -0.03109,0.03775 -0.0074,0.0087 -1.342668,1.47376 -1.342668,1.47376 l -2.436639,2.693424 -1.09249,1.213855 -0.969623,1.074466 -1.804534,1.996473 c 0,0 -0.293107,0.313628 -0.407093,0.438498 -0.05625,-0.158266 -0.113986,-0.312175 -0.168759,-0.474797 l -0.26054,-0.725991 -1.779368,-4.932377 -0.387849,-1.06285 c 0,0 -0.415975,-1.139805 -0.429298,-1.176104 -0.003,-0.0087 -0.0089,-0.02904 -0.0089,-0.02904 -0.164318,-0.569176 -0.427819,-0.903132 -0.706122,-1.102053 0.789021,0 1.327864,0 1.631334,0 0.0015,0.01016 0.07994,0.262808 0.07994,0.262808 0.17468,0.567725 0.380447,1.116573 0.578813,1.647998 l 0.26054,0.707115 c 0.272382,0.75503 0.510717,1.543455 0.74165,2.308649 0.07994,0.26426 0.155435,0.545944 0.177641,0.817465 0.05477,0.734702 0.673554,1.311138 1.409283,1.311138 l 0.901527,-0.09728 0.376006,-0.820369 c 0.03701,-0.07695 0.09178,-0.162622 0.17616,-0.275877 l -0.003,0 0.003,0 m 6.529778,1.542004 0.612861,-2.533706 0.239815,-1.023647 0.09918,-0.435594 c 0,0 0.01332,-0.05517 0.03257,-0.13213 0.229453,0.0029 0.532922,0.0058 0.532922,0.0058 0,0 0.544765,0 1.033277,0 -0.05625,0.236673 -0.113986,0.476249 -0.113986,0.476249 l -0.100663,0.432691 -0.140632,0.574984 c -0.165798,0.682431 -0.338998,1.390997 -0.487032,2.102468 0,0 -0.207247,0.99025 -0.278304,1.331466 -0.445582,0 -0.83047,0 -1.623932,0 0.08882,-0.371707 0.193924,-0.798589 0.193924,-0.798589 l 0,0 m 4.790379,-2.026965 0.140633,-0.580792 0.105104,-0.439951 0.205767,-0.849408 0.07106,-0.274424 c 0.0681,-0.255549 0.136191,-0.545945 0.189484,-0.847957 0.583253,0.02033 1.141341,0.08131 1.662421,0.226509 0.445582,0.121966 0.744611,0.275876 0.889684,0.455922 0.09474,0.120514 0.146554,0.284588 0.146554,0.471893 0,0.01307 0,0.02759 0,0.04211 -0.02517,0.606928 -0.463347,1.203692 -1.170949,1.597178 -0.232413,0.129227 -0.500355,0.242481 -0.793462,0.335408 -0.386369,0.12487 -0.719445,0.207633 -0.993308,0.243933 -0.180601,0.02614 -0.368604,0.03775 -0.555127,0.04792 0.03257,-0.143746 0.06661,-0.288944 0.102143,-0.428334 l 0,0 M 39.95954,41.1046 c 1.515868,-0.842149 2.458844,-2.25057 2.522499,-3.76789 0.0015,-0.04937 0.003,-0.09728 0.003,-0.148102 0,-0.772453 -0.253138,-1.510059 -0.719445,-2.090851 -0.509237,-0.633064 -1.246446,-1.075918 -2.256037,-1.35615 -0.105104,-0.02904 -0.205767,-0.04646 -0.309391,-0.06969 0.359722,0.03049 0.706122,0.07115 1.030316,0.126322 1.443331,0.245385 2.550625,0.727442 3.289315,1.433105 0.381927,0.362995 0.639506,0.757934 0.746091,1.145612 0.04293,0.158266 0.06514,0.328148 0.06514,0.503838 0,0.223605 -0.03553,0.453017 -0.103624,0.688238 -0.2635,0.879901 -0.934094,1.727857 -1.841542,2.326073 -0.541805,0.358639 -1.193154,0.763742 -1.887433,1.057042 -0.293108,0.12487 -0.599538,0.233769 -0.907449,0.332503 0.121388,-0.05953 0.251658,-0.116158 0.368605,-0.180045 l 0,0 z" />
      <path
         inkscape:connector-curvature="0"
         id="path585"
         style="fill:#ffffff"
         d="m 4.6934467,32.20826 c 3.5557757,0 7.1115513,0 10.6673273,0 1.770486,0 3.539492,0 5.309978,0 0.0977,0 0.196885,-0.01307 0.296068,-0.0029 0.118427,0.01162 0.153955,0.156814 0.195405,0.252645 0.134711,0.302012 0.216129,0.625804 0.313832,0.940883 0.239815,0.775358 0.546245,1.534744 0.821588,2.299937 0.281265,0.78407 0.52256,1.575399 0.762375,2.369633 0.109545,0.362995 0.199846,0.71873 0.227972,1.093341 0.0044,0.04792 0.04589,0.09874 0.08142,0.09874 0.02369,-0.06824 0.05329,-0.133583 0.08586,-0.19747 0.07994,-0.15391 0.177641,-0.30056 0.278304,-0.441402 0.204286,-0.281684 0.432259,-0.544492 0.648388,-0.820369 0.242776,-0.309272 0.473709,-0.628707 0.720926,-0.935075 0.534402,-0.657747 1.096931,-1.290811 1.647618,-1.93549 0.565489,-0.659199 1.130979,-1.318399 1.696469,-1.977598 0.121388,-0.142294 0.248697,-0.280232 0.362683,-0.428334 0.0903,-0.114706 0.180602,-0.251193 0.328635,-0.297656 0.269422,-0.08276 0.584735,-0.04211 0.860078,-0.03049 0.818628,0.03485 1.643177,0.0073 2.463285,0.0073 0.876361,0 1.751242,0 2.627603,0 0.876361,0 1.752722,0.0015 2.627602,0.0044 0.430779,0.0015 0.863038,-0.01162 1.293817,0.02178 0.396731,0.03194 0.789021,0.07841 1.181311,0.14665 1.444812,0.245385 2.922191,0.765194 3.990996,1.783032 0.501835,0.480606 0.91485,1.07011 1.099892,1.739473 0.17468,0.625803 0.140632,1.286454 -0.04441,1.903546 -0.373046,1.247251 -1.289376,2.326073 -2.375945,3.044803 -0.676515,0.445758 -1.355991,0.856669 -2.105043,1.174653 -0.738689,0.310723 -1.506986,0.5503 -2.291566,0.715826 -1.6565,0.351379 -3.352969,0.287492 -5.036115,0.287492 -1.313061,0 -2.626122,0 -3.942144,0 0.03553,-0.390583 0.170239,-0.772454 0.2635,-1.152872 0.09918,-0.416719 0.201326,-0.834889 0.301989,-1.251608 0.204287,-0.845052 0.408574,-1.690105 0.614341,-2.535158 0.115467,-0.480605 0.225012,-0.962663 0.336037,-1.446172 0.05181,-0.230865 0.108065,-0.457374 0.170239,-0.686787 0.03405,-0.120514 0.06217,-0.297656 0.148034,-0.396391 0.04145,-0.05082 0.142113,-0.05663 0.202807,-0.06244 0.13323,-0.01452 0.269422,-0.01452 0.402652,-0.01162 0.315313,0.0073 0.629145,0.01452 0.944457,0.01452 0.898566,0 1.803054,0 2.70458,0 -0.05477,0.413815 -0.17764,0.813109 -0.278303,1.21676 -0.108065,0.429786 -0.208728,0.86538 -0.312352,1.299522 -0.213169,0.876997 -0.43374,1.753993 -0.620262,2.638249 0.808265,0 1.61505,0.02904 2.414434,-0.08131 0.407093,-0.05663 0.833431,-0.169882 1.22276,-0.297656 0.359723,-0.114706 0.709083,-0.259904 1.036238,-0.441402 0.997749,-0.554657 1.798612,-1.518772 1.845983,-2.681808 0.01925,-0.492221 -0.116947,-0.987347 -0.432259,-1.376478 -0.386369,-0.482057 -0.984426,-0.743414 -1.573601,-0.906035 -1.469977,-0.409459 -3.055421,-0.259905 -4.566848,-0.252645 -0.43818,0.0015 -0.87488,0.0029 -1.314541,0.0058 -0.210208,0 -0.420417,0.0015 -0.632105,0.0015 -0.214649,0.0015 -0.455945,-0.02759 -0.667633,0.0073 -0.180602,0.02904 -0.30495,0.241029 -0.417456,0.364447 -0.153955,0.169882 -0.30643,0.336859 -0.460386,0.506741 -0.296068,0.325244 -0.590655,0.649035 -0.888203,0.972827 -1.181311,1.295167 -2.35078,2.600497 -3.526169,3.901472 -0.926693,1.02655 -1.844504,2.06036 -2.780078,3.07965 -0.56549,0.61564 -1.153185,1.218212 -1.690548,1.858535 -0.05181,0.06244 -0.12879,0.133583 -0.158396,0.211989 -0.0015,0.0044 -0.0015,0.0058 -0.0015,0.01016 -0.05921,0 -0.06514,0.01742 -0.07846,-0.04646 -0.02072,-0.09147 -0.04441,-0.181498 -0.07402,-0.27152 -0.05921,-0.193114 -0.134711,-0.381871 -0.210208,-0.570629 -0.313832,-0.788425 -0.583254,-1.597178 -0.87192,-2.392864 -0.592136,-1.643642 -1.185752,-3.288735 -1.777888,-4.932377 -0.183562,-0.506742 -0.371565,-1.013483 -0.553647,-1.518772 -0.09178,-0.245385 -0.180601,-0.489317 -0.270902,-0.734702 -0.04737,-0.130678 -0.115466,-0.521261 -0.313832,-0.521261 0,0.230865 0.06513,0.438498 0.137672,0.659199 0.09326,0.296204 0.145073,0.592408 0.173199,0.90168 0.07254,0.76229 -0.0059,1.543455 -0.310871,2.254926 -0.56845,1.321302 -1.814896,2.334784 -3.043578,3.052063 -1.295297,0.75503 -2.750471,1.221115 -4.232291,1.453432 -0.8023441,0.126322 -1.6032078,0.16843 -2.4129536,0.164074 -0.8659987,-0.0015 -1.730517,-0.0058 -2.5965157,-0.0058 -0.8822824,0 -1.7601237,0 -2.6409258,0 -0.2116883,0 -0.4218965,0 -0.6335851,0 0,-0.194565 0.090301,-0.405103 0.1406323,-0.59386 0.1095451,-0.405103 0.2013262,-0.816013 0.2990286,-1.22402 0.4115341,-1.685749 0.8186275,-3.37295 1.2331226,-5.057248 0.04441,-0.185853 0.090301,-0.370255 0.1361912,-0.554656 0.016284,-0.06824 -0.00148,-0.100187 0.076978,-0.100187 0.054773,0 0.1051041,0 0.1583963,0 0.1065845,0 0.2116886,0 0.3167927,0 0.4248575,0 0.8482346,0 1.2716117,0 0.8289902,0 1.6579804,0 2.4869706,0 -0.4159755,1.716241 -0.8304706,3.436838 -1.2449656,5.153079 0.8363918,0 1.6816657,0.04211 2.5062149,-0.09293 0.4144951,-0.06534 0.8201079,-0.181497 1.2153589,-0.313628 0.322714,-0.107446 0.638026,-0.220701 0.934094,-0.383322 1.104333,-0.605476 2.00586,-1.780129 1.865228,-3.072391 -0.155436,-1.437461 -1.705351,-1.97905 -2.972522,-2.112632 -0.7668157,-0.08276 -1.5410333,-0.06244 -2.3108099,-0.06098 -0.8808021,0.0029 -1.7601238,0 -2.6409259,0 -0.3360371,0 -0.6720742,0 -1.0081113,0 -0.071056,0 -0.1421126,0 -0.2116885,0 -0.059214,0 -0.2131689,0.03049 -0.2131689,-0.03194 0,-0.155361 0.074017,-0.332503 0.1125058,-0.482057 0.1583963,-0.631612 0.3167927,-1.261771 0.475189,-1.893383" />
    </g>
    <path
       inkscape:connector-curvature="0"
       sodipodi:nodetypes="ccccccccc"
       id="path5593"
       d="m 28.5,39.500008 3,0 3,0 0,3 -3,0 -3,0 -3,0 0,-3 3,0 z"
       style="fill:url(#linearGradient7559);fill-opacity:1;fill-rule:evenodd;stroke:#771313;stroke-width:1;stroke-linecap:butt;stroke-linejoin:round;stroke-miterlimit:4;stroke-opacity:1;stroke-dasharray:none;display:inline" />
    <path
       inkscape:connector-curvature="0"
       style="font-size:13.91300964px;font-style:italic;font-variant:normal;font-weight:bold;font-stretch:normal;fill:url(#linearGradient3892);fill-opacity:1;stroke:#771313;stroke-width:2;stroke-linecap:butt;stroke-linejoin:miter;stroke-miterlimit:4;stroke-opacity:1;stroke-dasharray:none;font-family:Arial;-inkscape-font-specification:Arial Bold Italic"
       d="m 39.317634,46.000006 c -0.686819,0 -1.373637,0 -2.060455,0 0.698189,-3.30551 1.396377,-6.611019 2.094567,-9.916529 1.660835,0.0083 3.322324,-0.0176 4.982703,0.0148 0.857319,0.02384 1.823926,0.275399 2.269832,1.074257 0.603648,1.026948 0.519425,2.427307 -0.189333,3.385451 -0.576403,0.77784 -1.559873,1.115421 -2.49199,1.227832 0.884644,0.838744 1.306128,2.020328 1.815307,3.095417 0.05671,0.322323 0.537843,0.939419 0.362664,1.118771 -0.703248,0 -1.406495,0 -2.109742,0 -0.389247,-1.107954 -0.818245,-2.210622 -1.36881,-3.249737 -0.258326,-0.501527 -0.752671,-0.880883 -1.34066,-0.849322 -0.365663,-0.01316 -0.731743,-0.0043 -1.0976,-0.0069 -0.288828,1.368652 -0.577656,2.737305 -0.866483,4.105957 z m 1.180328,-5.594116 c 1.097158,-0.02061 2.217022,0.07988 3.288542,-0.196164 0.818973,-0.247471 1.486306,-1.275596 0.986622,-2.065656 -0.412778,-0.507015 -1.13671,-0.374611 -1.719399,-0.40333 -0.665434,10e-7 -1.330869,10e-7 -1.996303,2e-6 -0.186487,0.888383 -0.372974,1.776766 -0.559462,2.665148 z"
       id="text6701" />
    <path
       inkscape:connector-curvature="0"
       style="font-size:13.91300964px;font-style:italic;font-variant:normal;font-weight:bold;font-stretch:normal;fill:url(#linearGradient3895);fill-opacity:1;stroke:none;font-family:Arial;-inkscape-font-specification:Arial Bold Italic"
       d="m 39.317634,46.000006 c -0.686819,0 -1.373637,0 -2.060455,0 0.698189,-3.30551 1.396377,-6.611019 2.094567,-9.916529 1.639474,0.0065 3.279392,-0.01368 4.918561,0.01133 0.818283,0.03233 1.74273,0.206244 2.232802,0.928278 0.642092,0.899206 0.63757,2.155452 0.167794,3.128768 -0.483163,0.996932 -1.593651,1.49491 -2.651914,1.621095 -0.1329,0.09302 0.391579,0.433451 0.470676,0.666052 0.714458,1.11225 1.214069,2.342883 1.712077,3.561003 -0.736852,0 -1.473704,0 -2.210555,0 -0.36653,-1.059003 -0.787302,-2.10378 -1.286136,-3.10834 -0.247719,-0.457582 -0.624279,-0.947907 -1.195627,-0.970029 -0.440076,-0.04685 -0.883538,-0.02074 -1.325307,-0.02759 -0.288828,1.368652 -0.577656,2.737305 -0.866483,4.105957 z m 1.180328,-5.594116 c 1.072973,-0.01757 2.163716,0.06966 3.216797,-0.172408 0.80265,-0.214598 1.470375,-1.120951 1.146715,-1.940385 -0.237827,-0.546428 -0.919344,-0.544539 -1.427965,-0.551721 -0.792025,-0.0015 -1.584057,-2.35e-4 -2.376085,-6.34e-4 -0.186487,0.888383 -0.372974,1.776766 -0.559462,2.665148 z"
       id="text6713" />
  </g>
</svg>
